<mxfile host="app.diagrams.net" modified="2023-06-20T02:33:16.430Z" agent="Mozilla/5.0 (Windows NT 10.0; Win64; x64) AppleWebKit/537.36 (KHTML, like Gecko) Chrome/114.0.0.0 Safari/537.36" version="21.5.0" etag="HXETG2C-jiBuJzJxwVT1" type="github">
  <diagram name="第 1 页" id="XRWJz3WJPpyNqy3XNqz8">
    <mxGraphModel>
      <root>
        <mxCell id="0" />
        <mxCell id="1" parent="0" />
      </root>
    </mxGraphModel>
  </diagram>
</mxfile>
